<svg fill="white" width="28" height="17" viewBox="0 0 28 17" xmlns="http://www.w3.org/2000/svg">
<path d="M20.3844 0.394287C21.8777 1.23944 24.9503 4.61931 25.1848 6.37627C25.4194 8.13307 21.9833 5.92044 19.6467 9.3169C18.5217 10.9524 18.3752 13.2996 19.0185 14.7595H9.29964C9.29964 14.7595 12.6282 13.114 12.9799 11.5463C13.3319 9.97858 12.7878 6.77643 15.2521 6.30949C17.7163 5.84233 21.6848 5.77581 21.8129 5.10863C21.9409 4.44146 21.9409 3.20723 19.4126 1.80659C19.6052 0.972385 20.3844 0.394287 20.3844 0.394287Z"/>
<path d="M11.3657 12.294C11.7683 11.9337 12.0487 11.593 12.1073 11.3326C12.1757 11.0282 12.2063 10.5904 12.2387 10.127C12.35 8.53571 12.5361 5.87313 15.0932 5.38856C16.0058 5.2156 17.0858 5.0987 18.1298 4.98617C18.3483 4.96239 18.5898 4.93644 18.8382 4.90831L18.1 4.0396C17.5691 3.41516 16.7739 3.10874 15.9807 3.22281L13.0984 3.63807C12.7227 3.69216 12.3942 3.92858 12.2121 4.2749L11.4772 5.67532L7.70089 4.64128L6.70875 3.04021L2.3243 3.47379L10.4531 8.41046L11.3657 12.294Z"/>
<path d="M6.89315 13.2516C6.46333 14.011 5.67318 14.5231 4.76745 14.5231C3.40434 14.5231 2.29527 13.3672 2.29527 11.9465C2.29527 10.5258 3.40434 9.36988 4.76745 9.36988C5.36718 9.36988 5.91714 9.59409 6.34485 9.96618L8.32135 9.49378C7.55818 8.29292 6.25324 7.49925 4.76724 7.49925C2.41034 7.49925 0.5 9.49071 0.5 11.9467C0.5 14.4029 2.41034 16.3942 4.76724 16.3942C6.7454 16.3942 8.40229 14.9887 8.88443 13.0852L6.89315 13.2516Z"/>
<path d="M23.8676 8.79829C23.7799 8.79829 23.6941 8.80549 23.6081 8.81203L24.3558 10.4185C25.2989 10.6495 26.0039 11.5319 26.0039 12.5845C26.0039 13.8124 25.0455 14.8113 23.8674 14.8113C22.6892 14.8113 21.7308 13.8124 21.7308 12.5845C21.7308 12.2484 21.8047 11.9304 21.9334 11.6442L21.1855 10.0375C20.5968 10.7104 20.235 11.6021 20.235 12.5845C20.235 14.6751 21.8614 16.3702 23.8674 16.3702C25.8735 16.37 27.5 14.6752 27.5 12.5842C27.5 10.4936 25.8736 8.79829 23.8676 8.79829Z"/>
<path d="M22.3923 8.34443C22.1161 8.42513 21.838 8.54203 21.5641 8.708L23.4638 12.7889C23.5414 12.9555 23.7013 13.0525 23.8678 13.0525C23.9335 13.0525 24.0005 13.0373 24.0635 13.0057C24.2864 12.8927 24.3795 12.6133 24.2713 12.3806L22.3923 8.34443Z"/>
<path d="M9.91935 10.0713L4.43798 11.3816C4.14586 11.4277 3.94183 11.7081 3.97845 12.0139C4.0136 12.3066 4.25802 12.5225 4.54094 12.5109L10.378 12.0222L9.91935 10.0713Z"/>
</svg>
