<svg fill="white" width="20" height="17" viewBox="0 0 20 17" xmlns="http://www.w3.org/2000/svg">
<path d="M0.0991211 13.3532C0.0991211 13.5578 0.238243 13.7251 0.408411 13.7251L12.1341 13.7214C12.1806 13.7214 12.2239 13.7065 12.2671 13.6842L14.9458 12.159C19.1887 12.0158 19.901 12.4755 19.901 11.787C19.901 9.69259 18.5586 7.14838 16.9378 6.90636L16.4831 4.20554C15.8986 3.98598 15.4252 3.58437 15.1439 3.06356H14.4232V7.96302L12.0044 10.8981H10.5229L9.93831 8.26804C9.79919 7.63556 9.31973 7.1966 8.77536 7.1966H5.22451C2.42226 7.1966 0.13954 9.91588 0.105273 13.275C0.10214 13.3012 0.0991211 13.3271 0.0991211 13.3532Z"/>
<path d="M4.93658 6.46013C5.03242 6.45636 5.12839 6.45276 5.22423 6.45276H8.77507C9.3132 6.45276 9.80504 6.73551 10.1422 7.19673H10.365C10.5351 7.19673 10.6742 7.02941 10.6742 6.82475V4.65228C10.6742 4.44403 10.5351 4.2803 10.365 4.2803H7.02755C5.96666 4.28013 5.0851 5.22875 4.93658 6.46013Z"/>
<path d="M15.2491 13.3496C15.2491 14.8599 16.2666 16.0875 17.5193 16.0875L17.5626 16.0874C18.9601 16.055 19.999 14.4736 19.7587 12.8844C19.5916 12.9197 19.8007 12.8956 15.2799 12.9031C15.2583 13.0481 15.2491 13.197 15.2491 13.3496Z"/>
<path d="M3.00678 14.4694C3.36249 15.4218 4.15734 16.0877 5.08225 16.0877C6.00399 16.0877 6.80201 15.4218 7.15459 14.4658L3.00678 14.4694Z"/>
<path d="M11.7941 1.20379C11.7941 1.82136 12.1838 2.31973 12.6601 2.31973H15.5304C15.7315 3.09724 16.5636 3.6626 17.5904 3.6626C17.7606 3.6626 17.8997 3.49527 17.8997 3.29061V0.608467C17.8997 0.403808 17.7606 0.236485 17.5904 0.236485C17.0027 0.236485 16.48 0.418706 16.0995 0.723713V0.459629C16.0995 0.254969 15.9604 0.0876465 15.7902 0.0876465L12.6601 0.0878177C12.1838 0.0878177 11.7941 0.589983 11.7941 1.20379Z"/>
</svg>
