<svg width="38" height="16" viewBox="0 0 38 16" xmlns="http://www.w3.org/2000/svg">
<path d="M35.1628 4.77707C34.9347 4.62507 34.7066 4.54894 34.4023 4.54894L27.9376 3.78845C27.7856 3.78845 27.4813 3.71232 27.2532 3.48419L23.5263 0.974266C22.6897 0.365755 21.701 0.0615234 20.6362 0.0615234H5.3489C4.5884 0.0615234 3.90376 0.441913 3.52362 1.12631L1.62221 4.24475C1.16595 4.92912 1.31795 5.00525 0.709467 9.94897C0.557469 11.0899 1.46996 12.0785 2.61087 12.0785H3.67566V11.6222C3.67566 8.73215 6.03334 6.4504 8.92361 6.4504C11.8137 6.4504 14.1716 8.80807 14.1716 11.6222V12.0785H25.7321V11.6222C25.7321 8.73215 28.0898 6.4504 30.9801 6.4504C33.8701 6.4504 36.1519 8.80807 36.1519 11.6222V11.8503C36.38 11.6984 36.6081 11.5461 36.7604 11.3941C37.1408 10.9378 37.3689 10.3293 37.2928 9.72079C36.9885 7.89523 36.6079 5.68961 35.1628 4.77707ZM11.053 3.71228L8.92347 3.48416C8.31496 3.40803 7.85869 2.87565 7.93481 2.26712L8.01094 1.50663H10.9771L10.9769 3.71226L11.053 3.71228ZM16.5291 4.24466L12.5743 3.86427V1.58245H16.6052V4.24462L16.5291 4.24466ZM24.9713 4.77704C24.6671 4.92904 24.3628 4.92904 24.0586 4.92904L18.0502 4.39666V1.58251H20.6359C21.3203 1.58251 22.0049 1.81064 22.6135 2.19102L25.7319 4.39665L24.9713 4.77704Z"/>
<path fill-rule="evenodd" clip-rule="evenodd" d="M8.84705 15.2728C10.9004 15.2728 12.5737 13.5995 12.5737 11.5461C12.5737 9.56857 10.9004 7.89526 8.84705 7.89526C6.79367 7.89526 5.12036 9.49272 5.12036 11.5461C5.12036 13.5995 6.79367 15.2728 8.84705 15.2728ZM8.84684 13.4149C9.85792 13.4149 10.6776 12.5952 10.6776 11.5841C10.6776 10.5731 9.85792 9.75342 8.84684 9.75342C7.83576 9.75342 7.01611 10.5731 7.01611 11.5841C7.01611 12.5952 7.83576 13.4149 8.84684 13.4149Z"/>
<path d="M14.8213 5.47559H2.65186V12.0785H7.08364C7.03964 11.9213 7.01611 11.7554 7.01611 11.5841C7.01611 10.5731 7.83576 9.75342 8.84684 9.75342C9.85792 9.75342 10.6776 10.5731 10.6776 11.5841C10.6776 11.7554 10.654 11.9213 10.61 12.0785H14.8213V5.47559Z"/>
<path fill-rule="evenodd" clip-rule="evenodd" d="M30.827 15.2728C32.8046 15.2728 34.4779 13.5995 34.4779 11.5461C34.4779 9.56857 32.8807 7.89526 30.827 7.89526C28.7736 7.89526 27.1003 9.49272 27.1003 11.5461C27.1003 13.5995 28.8495 15.2728 30.827 15.2728ZM30.8996 13.4149C31.9107 13.4149 32.7303 12.5952 32.7303 11.5841C32.7303 10.5731 31.9107 9.75342 30.8996 9.75342C29.8885 9.75342 29.0688 10.5731 29.0688 11.5841C29.0688 12.5952 29.8885 13.4149 30.8996 13.4149Z"/>
<path d="M34.9022 5.94879L24.7046 5.47559V12.0785H29.1364C29.0924 11.9213 29.0688 11.7554 29.0688 11.5841C29.0688 10.5731 29.8885 9.75342 30.8996 9.75342C31.9107 9.75342 32.7303 10.5731 32.7303 11.5841C32.7303 11.7554 32.7068 11.9213 32.6628 12.0785H35.3643C35.8388 12.0785 36.2468 11.7427 36.3381 11.2771L34.9022 5.94879Z"/>
</svg>
