<svg fill="white" width="28" height="16" viewBox="0 0 28 16" xmlns="http://www.w3.org/2000/svg">
<path d="M25.3622 6.24937C23.7907 5.79937 23.163 5.6286 21.2182 5.18667C21.2182 5.18667 18.4427 2.46475 17.9142 1.93744C17.2515 1.27744 16.6973 0.571289 14.4737 0.571289H5.264C4.66783 0.571289 4.40533 1.20244 5.18233 1.72514C4.31667 2.41975 3.2935 3.31744 2.548 4.06398C0.873833 5.74283 0 6.8159 0 8.9736C0 11.0044 1.21567 13.2636 3.703 13.2636H3.71467C4.1965 14.6044 5.47867 15.5713 7 15.5713C8.52133 15.5713 9.8035 14.6044 10.2853 13.2636H17.7135C18.1953 14.6044 19.4775 15.5713 20.9988 15.5713C22.5202 15.5713 23.8023 14.6044 24.2842 13.2636H25.0833C27.4097 13.2636 28 11.2144 28 9.61167C28 7.25667 26.6898 6.63013 25.3622 6.24937ZM7 13.4944C6.22767 13.4944 5.6 12.8736 5.6 12.1098C5.6 11.3459 6.22767 10.7251 7 10.7251C7.77233 10.7251 8.4 11.3459 8.4 12.1098C8.4 12.8736 7.77233 13.4944 7 13.4944ZM11.172 6.34052C9.9225 6.34052 7.08867 6.21821 5.08317 5.47514C5.7575 4.60975 6.2475 4.06514 6.56483 3.70283C6.93583 3.27821 7.58333 2.87898 8.386 2.87898H11.172V6.34052ZM12.3387 2.87898H14.4795C15.5085 2.87898 16.1455 3.44783 16.8385 4.15398C17.3658 4.69167 18.8592 6.34052 18.8592 6.34052H12.3398V2.87898H12.3387ZM21 13.4944C20.2277 13.4944 19.6 12.8736 19.6 12.1098C19.6 11.3459 20.2277 10.7251 21 10.7251C21.7723 10.7251 22.4 11.3459 22.4 12.1098C22.4 12.8736 21.7723 13.4944 21 13.4944Z"/>
</svg>
