<svg width="28" height="24" viewBox="0 0 28 24" xmlns="http://www.w3.org/2000/svg">
<path d="M25.3622 14.3759C23.7907 13.9209 23.163 13.7482 21.2182 13.3014C21.2182 13.3014 18.4427 10.5492 17.9142 10.016C17.2515 9.34869 16.6973 8.63468 14.4737 8.63468H5.264C4.66783 8.63468 4.4065 9.27285 5.1835 9.80135C4.31667 10.5037 3.2935 11.4114 2.54917 12.1662C0.873833 13.8637 0 14.9487 0 17.1304C0 19.1837 1.21567 21.468 3.703 21.468H3.71467C4.1965 22.8237 5.47867 23.8014 7 23.8014C8.52133 23.8014 9.8035 22.8237 10.2853 21.468H17.7135C18.1953 22.8237 19.4775 23.8014 20.9988 23.8014C22.5202 23.8014 23.8023 22.8237 24.2842 21.468H25.0833C27.4097 21.468 28 19.396 28 17.7755C28 15.3944 26.6898 14.7609 25.3622 14.3759ZM7 21.7014C6.22767 21.7014 5.6 21.0737 5.6 20.3014C5.6 19.529 6.22767 18.9014 7 18.9014C7.77233 18.9014 8.4 19.529 8.4 20.3014C8.4 21.0737 7.77233 21.7014 7 21.7014ZM11.172 14.468C9.9225 14.468 7.08867 14.3444 5.08317 13.593C5.7575 12.718 6.2475 12.1674 6.56483 11.801C6.93583 11.3717 7.58333 10.968 8.386 10.968H11.172V14.468ZM12.3387 10.968H14.4795C15.5085 10.968 16.1455 11.5432 16.8385 12.2572C17.3658 12.8009 18.8592 14.468 18.8592 14.468H12.3398V10.968H12.3387ZM21 21.7014C20.2277 21.7014 19.6 21.0737 19.6 20.3014C19.6 19.529 20.2277 18.9014 21 18.9014C21.7723 18.9014 22.4 19.529 22.4 20.3014C22.4 21.0737 21.7723 21.7014 21 21.7014ZM16.7708 4.55135C16.7708 4.87335 16.5095 5.13468 16.1875 5.13468H14V6.30135H11.7962C10.8127 6.30135 9.9435 5.81485 9.415 5.06818C8.92733 4.37985 8.13283 3.96802 7.28933 3.96802H7.26717C2.58067 3.96802 1.13633 7.71885 3.1815 10.0977L2.324 10.8875C-0.407167 7.76202 1.5505 2.80135 7.26717 2.80135H7.28933C8.134 2.80135 8.92733 2.39068 9.415 1.70118C9.9435 0.954518 10.8127 0.468018 11.7962 0.468018H14V1.63468H16.1875C16.5095 1.63468 16.7708 1.89602 16.7708 2.21802C16.7708 2.54002 16.5095 2.80135 16.1875 2.80135H14V3.96802H16.1875C16.5095 3.96802 16.7708 4.22935 16.7708 4.55135Z" />
</svg>
