<svg width="20" height="17" viewBox="0 0 20 17" fill="none" xmlns="http://www.w3.org/2000/svg">
<path d="M2.58133 11.9918C1.90998 11.9918 1.90998 10.9512 2.58133 10.9512C4.1926 10.9512 5.60257 11.7967 6.34116 13.1625H14.062L15.539 11.3414L12.1149 1.84535L10.9064 2.23559C10.2351 2.43078 9.83223 1.39002 10.5706 1.19498L13.9947 0.0242632C14.7333 -0.170929 15.0689 0.86983 14.3975 1.06487L13.1891 1.45511L17.2844 12.9673C18.4929 12.9022 19.5 13.8129 19.5 14.9836C19.5 16.0893 18.5601 16.9999 17.4187 16.9999C16.2773 16.9999 15.3373 16.0893 15.3373 14.9836C15.3373 14.3332 15.6731 13.6828 16.2102 13.2926L15.9416 12.5771C15.2031 13.4876 14.4646 14.3982 13.726 15.3087C13.5918 15.4388 13.4575 15.5689 13.256 15.5689H6.27382C5.93805 15.5689 5.66949 15.3087 5.66949 14.9834C5.66949 13.3574 4.32675 11.9917 2.58122 11.9917L2.58133 11.9918ZM2.58133 12.9674C3.78981 12.9674 4.72969 13.878 4.72969 14.9837C4.72969 16.0895 3.78977 17 2.58133 17C1.43992 17 0.5 16.0895 0.5 14.9837C0.5 13.878 1.43992 12.9674 2.58133 12.9674Z" fill="black"/>
</svg>
