<svg width="30" height="20" viewBox="0 0 30 20" fill="white" xmlns="http://www.w3.org/2000/svg">
<path d="M19.0907 0V0.666615H20.1453L20.4224 3.66653H20.1135V4.33315H19.0907V5.66638H19.7617C19.9094 6.2042 20.0749 6.76735 20.273 7.34354C17.0535 7.39842 14.632 7.77579 12.4109 8.6666L10.5785 2.78111C11.1411 2.60625 11.7936 2.46976 12.5919 2.49976C12.8596 2.51069 13.1133 2.28236 13.1245 2.02054C13.1357 1.75872 12.9022 1.51063 12.6344 1.4997C11.1341 1.4432 10.0403 1.89986 9.32122 2.15584C8.96168 2.28395 8.69938 2.34301 8.58621 2.33302C8.47302 2.32302 8.42736 2.32325 8.27732 2.0726C8.15652 1.82031 7.7965 1.71243 7.5518 1.85543C7.30735 1.99842 7.23363 2.35929 7.40366 2.583C7.65857 3.0092 8.06568 3.29497 8.4904 3.33313C8.89513 3.3694 9.24276 3.255 9.60899 3.12479L11.4626 9.07284C10.3844 9.5888 9.32981 10.2454 8.23479 11.052C7.36945 10.3961 6.28842 9.99988 5.11353 9.99988C2.29756 9.99988 1.90735e-06 12.2465 1.90735e-06 14.9999C1.90735e-06 17.7534 2.29756 20 5.11353 20C7.9295 20 10.2271 17.7534 10.2271 14.9999C10.2271 14.1008 9.98403 13.2512 9.55602 12.5209C11.2104 11.2755 12.683 10.4914 14.3925 10.0104L14.5204 11.8333C14.2853 11.9349 14.0817 12.0737 13.9027 12.25L13.4766 11.9584L13.6789 11.7605L13.1995 11.2918L12.23 12.2293L12.7094 12.698L12.9864 12.4376L13.4977 12.8022C13.3702 13.0635 13.2953 13.3598 13.2953 13.6667C13.2953 14.7672 14.2151 15.6668 15.3409 15.6668C16.4663 15.6668 17.3864 14.7675 17.3864 13.6667C17.3864 12.7492 16.7482 11.9637 15.8842 11.7291L15.7352 9.70829C17.21 9.44112 18.9033 9.33649 21.0299 9.33324C21.2855 9.94961 21.5338 10.4968 21.7863 11.0311C20.5646 11.9462 19.7729 13.3848 19.7729 14.9999C19.7729 17.7534 22.0705 20 24.8865 20C27.7024 20 30 17.7534 30 14.9999C30 12.2464 27.7024 9.99985 24.8865 9.99985C24.0875 9.99985 23.3349 10.1884 22.66 10.5102C22.4163 9.97707 22.1604 9.40783 21.9676 8.93723C22.1749 8.67099 22.232 8.29943 22.1136 7.98555C21.9951 7.67142 21.7053 7.42495 21.3709 7.35406C21.1657 6.77276 20.9824 6.20726 20.8276 5.66642C21.1738 5.65037 21.4777 5.33857 21.4775 4.9998V3.66657H21.1046L20.7957 0.302063C20.78 0.138139 20.6231 -0.000672822 20.4547 2.36151e-05L19.0907 0ZM4.77285 11.3543V13.9376C4.57167 14.1038 4.43209 14.257 4.26159 14.4272L1.60901 13.719C2.02016 12.2837 3.25405 11.4617 4.77313 11.3543L4.77285 11.3543ZM5.45459 11.3543C6.06785 11.408 6.63593 11.601 7.12726 11.9063C6.58557 12.343 6.03577 12.8082 5.45459 13.323V11.3543ZM24.5451 11.3543V13.8023C24.1304 13.2317 23.6852 12.5048 23.256 11.6982C23.656 11.5105 24.1033 11.3924 24.5451 11.3545V11.3543ZM25.2268 11.3543C26.6936 11.4827 27.9001 12.4221 28.3909 13.719L25.7276 14.4273C25.6078 14.2592 25.4276 14.1336 25.2269 14.0627L25.2268 11.3543ZM22.4037 12.2607C22.8165 13.0389 23.2403 13.7388 23.6714 14.3336L21.381 13.719C21.5964 13.1496 21.9486 12.6553 22.4037 12.2607ZM15.937 12.469C16.3923 12.6855 16.7041 13.1371 16.7041 13.667C16.7041 14.4073 16.0977 14.99 15.3406 14.99C14.5835 14.99 13.9771 14.4073 13.9771 13.667C13.9771 13.497 14.0142 13.3372 14.073 13.1877L14.3607 13.3961C14.3369 13.4807 14.3181 13.5749 14.3181 13.667C14.3181 14.2192 14.7761 14.667 15.3409 14.667C15.9057 14.667 16.3637 14.2194 16.3637 13.667C16.3637 13.3456 16.2103 13.0582 15.9694 12.8752L15.937 12.469ZM14.5735 12.5523L14.5839 12.7294L14.4667 12.6462C14.5031 12.6164 14.5338 12.5783 14.5732 12.5525L14.5735 12.5523ZM8.47985 13.3751C8.53573 13.4863 8.57402 13.6016 8.61824 13.7188L7.81926 13.9271C8.04635 13.732 8.26202 13.5546 8.47987 13.3751H8.47985ZM1.42744 14.3543L4.04819 15.0523C4.05152 15.2832 4.13974 15.5122 4.29311 15.6878L2.89749 17.9585C1.96816 17.2928 1.36349 16.2193 1.36349 15.0002C1.36349 14.7786 1.38941 14.5649 1.42746 14.3543H1.42744ZM8.79944 14.3543C8.83749 14.5647 8.86341 14.7786 8.86341 15.0002C8.86341 16.2193 8.2587 17.2929 7.32941 17.9585L5.90195 15.6357C6.18041 15.3802 6.44888 15.1428 6.71165 14.9065L8.79944 14.3543ZM21.1997 14.3543L23.8738 15.0625C23.888 15.2787 23.9648 15.4678 24.0975 15.6249L22.6701 17.9582C21.7407 17.2925 21.1361 16.219 21.1361 14.9999C21.1361 14.7783 21.162 14.5647 21.2 14.354L21.1997 14.3543ZM28.5717 14.3543C28.6098 14.5647 28.6357 14.7786 28.6357 15.0002C28.6357 16.2193 28.031 17.2929 27.1017 17.9585L25.6635 15.6357C25.8017 15.4767 25.8833 15.2841 25.898 15.0628L28.5717 14.3543ZM24.6726 15.9793C24.8165 16.0165 24.9544 15.99 25.088 15.9793L26.5155 18.292C26.0218 18.5247 25.4728 18.667 24.8857 18.667C24.2983 18.667 23.7495 18.525 23.2559 18.292L24.6726 15.9793ZM5.3374 16L6.74375 18.2917C6.25008 18.5245 5.70102 18.6668 5.11393 18.6668C4.52658 18.6668 3.97776 18.5247 3.48412 18.2917L4.87974 16.021C5.03146 16.048 5.18935 16.0407 5.33773 16.0003L5.3374 16Z" />
</svg>
