<svg width="16" height="26" viewBox="0 0 16 26" fill="black" xmlns="http://www.w3.org/2000/svg">
<path d="M4.49749 17.409L6.60142 19.5129L4.78321 24.4222C4.57539 24.9678 4.05591 25.3053 3.51039 25.3053C3.35457 25.3053 3.19875 25.2794 3.04293 25.2274C2.34156 24.9676 1.97791 24.1885 2.23776 23.4871L4.49749 17.409Z"/>
<path d="M0.575152 12.0322L1.82191 9.6425C2.15964 9.01905 2.6532 8.49955 3.25058 8.13595C6.13381 6.42155 6.49746 6.44766 6.86111 6.47355L8.80923 6.60346C9.40661 6.62937 9.82226 6.78537 11.8224 9.72041C11.9003 9.82423 12.0043 9.90233 12.1601 9.92824L14.5498 10.2919C15.1992 10.3957 15.6408 10.9933 15.5369 11.6426C15.4331 12.292 14.8355 12.7336 14.1862 12.6297L11.7965 12.2661C11.0172 12.1362 10.3158 11.7205 9.87426 11.0711C9.77044 10.9153 9.69235 10.7854 9.58853 10.6555L8.05605 15.5128L10.1861 17.6429C10.4977 17.9545 10.7575 18.3702 10.9134 18.7858L12.5499 23.5652C12.8097 24.2666 12.42 25.0459 11.7186 25.2796C11.5628 25.3316 11.4328 25.3575 11.277 25.3575C10.7056 25.3575 10.1861 24.9939 9.97827 24.4483L8.3418 19.6689C8.31589 19.6169 8.2898 19.591 8.26389 19.539L4.47144 15.7207C3.92587 15.1751 3.71826 14.4219 3.87406 13.6946L4.70536 10.0062C4.62744 10.0582 4.54953 10.11 4.44553 10.162C4.2118 10.2919 4.02989 10.4997 3.89996 10.7334L2.65321 13.1231C2.44539 13.5127 2.02976 13.7466 1.6143 13.7466C1.43239 13.7466 1.25066 13.6946 1.06873 13.6167C0.497283 13.3048 0.289427 12.6037 0.575152 12.0322Z"/>
<path d="M8.51884 0.657988C9.95929 0.814715 10.9998 2.10948 10.8429 3.54975C10.6862 4.9902 9.39141 6.03073 7.95114 5.87382C6.51069 5.71709 5.47016 4.42232 5.62708 2.98206C5.7838 1.5416 7.07857 0.501071 8.51884 0.657988Z"/>
</svg>
