<svg width="32" height="22" viewBox="0 0 32 22" xmlns="http://www.w3.org/2000/svg">
<path fill-rule="evenodd" clip-rule="evenodd" d="M11.9041 19.4118C11.372 20.9194 9.93563 22 8.25 22C6.38225 22 4.82192 20.6735 4.45637 18.9109L1.5385 18.326C0.934 18.2044 0.5 17.6738 0.5 17.0565V3.88235C0.5 3.19647 0.772542 2.53776 1.25692 2.05247C1.74129 1.56718 2.39875 1.29412 3.08333 1.29412H8.25C8.25 0.579765 8.82867 0 9.54167 0H21.1667C21.8797 0 22.4583 0.579765 22.4583 1.29412H27.625C29.7653 1.29412 31.5 3.03212 31.5 5.17647V18.1176C31.5 18.832 30.9213 19.4118 30.2083 19.4118H26.1125C25.5803 20.9194 24.144 22 22.4583 22C20.7727 22 19.3364 20.9194 18.8042 19.4118H11.9041ZM8.25 16.8235C8.963 16.8235 9.54167 17.4033 9.54167 18.1176C9.54167 18.832 8.963 19.4118 8.25 19.4118C7.537 19.4118 6.95833 18.832 6.95833 18.1176C6.95833 17.4033 7.537 16.8235 8.25 16.8235ZM22.4583 16.8235C23.1713 16.8235 23.75 17.4033 23.75 18.1176C23.75 18.832 23.1713 19.4118 22.4583 19.4118C21.7453 19.4118 21.1667 18.832 21.1667 18.1176C21.1667 17.4033 21.7453 16.8235 22.4583 16.8235ZM28.9167 12.9412C26.8952 11 24.9616 10.3529 21.1667 10.3529V3.88235H26.9792C28.0487 3.88235 28.9167 4.752 28.9167 5.82353V12.9412ZM19.875 3.88235H13.4167V10.3529H19.875V3.88235ZM12.125 3.88235H5.66667V10.3529H12.125V3.88235Z"/>
</svg>
