<svg fill="white" width="28" height="17" viewBox="0 0 28 17"  xmlns="http://www.w3.org/2000/svg">
<path d="M0 14.3701H27.9999V16.5626H0V14.3701Z" />
<path d="M27.312 8.01875C26.7715 7.47979 29.4263 10.1259 21.2043 1.92923C20.3292 1.0568 19.1393 0.5625 17.8968 0.5625L0 0.562703V2.8891H4.47998C4.64334 2.8891 4.77172 3.02277 4.77172 3.17998V7.72788C4.77172 7.89076 4.64335 8.01875 4.47998 8.01875L0 8.01855V13.2064H25.6665C26.9558 13.2064 27.9999 12.1654 27.9999 10.88V9.67026C27.9999 9.05383 27.7549 8.4605 27.3116 8.0185L27.312 8.01875ZM14.4027 7.72807C14.4027 7.89095 14.2687 8.01895 14.111 8.01895L6.76728 8.01875C6.60391 8.01875 6.47553 7.89076 6.47553 7.72787V3.17997C6.47553 3.02297 6.6039 2.88909 6.76728 2.88909H14.1115C14.269 2.88909 14.4033 3.02277 14.4033 3.17997L14.4027 7.72807ZM16.3978 8.01875C16.2344 8.01875 16.106 7.89076 16.106 7.72787L16.1062 3.17997C16.1062 3.02297 16.2346 2.88909 16.398 2.88909H20.5162C24.8076 7.16765 25.5811 7.93882 25.6612 8.01874L16.3977 8.01894L16.3978 8.01875Z" />
</svg>
