<svg width="64" height="69" viewBox="0 0 64 69" fill="none" xmlns="http://www.w3.org/2000/svg">
<path fill-rule="evenodd" clip-rule="evenodd" d="M0.129883 63.1863H5.86477V0.102539H57.4787V63.1863H63.2136V68.9212H0.129883V63.1863ZM20.202 54.584V66.0537H28.8043V54.584H20.202ZM34.5392 54.584V66.0537H43.1415V54.584H34.5392ZM17.3345 40.2467H11.5997V45.9816H17.3345V40.2467ZM40.2741 40.2467H34.5392V45.9816H40.2741V40.2467ZM28.8043 40.2467H23.0694V45.9816H28.8043V40.2467ZM51.7439 40.2467H46.009V45.9816H51.7439V40.2467ZM17.3345 28.777H11.5997V34.5119H17.3345V28.777ZM40.2741 28.777H34.5392V34.5119H40.2741V28.777ZM28.8043 28.777H23.0694V34.5119H28.8043V28.777ZM51.7439 28.777H46.009V34.5119H51.7439V28.777ZM17.3345 17.3072H11.5997V23.0421H17.3345V17.3072ZM40.2741 17.3072H34.5392V23.0421H40.2741V17.3072ZM28.8043 17.3072H23.0694V23.0421H28.8043V17.3072ZM51.7439 17.3072H46.009V23.0421H51.7439V17.3072ZM17.3345 5.83743H11.5997V11.5723H17.3345V5.83743ZM40.2741 5.83743H34.5392V11.5723H40.2741V5.83743ZM28.8043 5.83743H23.0694V11.5723H28.8043V5.83743ZM51.7439 5.83743H46.009V11.5723H51.7439V5.83743Z" fill="#1592BD"/>
</svg>
