<svg width="51" height="54" viewBox="0 0 51 54" fill="none" xmlns="http://www.w3.org/2000/svg">
<path d="M50.3337 23.9001L27.0893 0.655682C26.215 -0.21856 24.8305 -0.21856 24.0289 0.655682L0.638714 24.0458C0.0557164 24.6288 -0.162843 25.5763 0.128402 26.3778C0.419647 27.1794 1.22119 27.7624 2.09593 27.7624L6.10372 27.8351L9.52845 52.0268C9.67432 53.1196 10.6212 53.9212 11.7146 53.9212H39.331C40.4238 53.9212 41.3713 53.1196 41.5171 52.0268L44.9418 27.7622L48.9496 27.6164C49.8239 27.6164 50.6254 27.0334 50.9172 26.2318C51.1352 25.4302 50.9167 24.4832 50.3337 23.9003L50.3337 23.9001Z" fill="#1592BD"/>
</svg>
